HIERARCHY
ROOT Hips
{
	OFFSET 0.0000 0.0000 0.0000
	CHANNELS 6 Xposition Yposition Zposition Zrotation Xrotation Yrotation
	JOINT Spine1
	{
		OFFSET -0.0137 5.0038 -0.0537
		CHANNELS 3 Zrotation Xrotation Yrotation
		JOINT Spine2
		{
			OFFSET -0.0000 7.1253 -0.0298
			CHANNELS 3 Zrotation Xrotation Yrotation
			JOINT Chest
			{
				OFFSET -0.0000 7.5501 -0.8160
				CHANNELS 3 Zrotation Xrotation Yrotation
				JOINT Neck1
				{
					OFFSET -0.1817 26.3113 -0.5533
					CHANNELS 3 Zrotation Xrotation Yrotation
					JOINT Neck2
					{
						OFFSET -0.0000 7.7094 2.3026
						CHANNELS 3 Zrotation Xrotation Yrotation
						JOINT Head
						{
							OFFSET -0.0000 6.1289 1.9537
							CHANNELS 3 Zrotation Xrotation Yrotation
							JOINT Jaw
							{
								OFFSET 0.0026 0.4756 3.0949
								CHANNELS 3 Zrotation Xrotation Yrotation
								End Site
								{
									OFFSET 0.0 1.0 0.0
								}
							}
							JOINT LeftEye
							{
								OFFSET 3.2064 5.3802 7.5869
								CHANNELS 3 Zrotation Xrotation Yrotation
								End Site
								{
									OFFSET 0.0 1.0 0.0
								}
							}
							JOINT RightEye
							{
								OFFSET -3.2224 5.3619 7.5582
								CHANNELS 3 Zrotation Xrotation Yrotation
								End Site
								{
									OFFSET 0.0 1.0 0.0
								}
							}
						}
					}
				}
				JOINT LeftShoulder
				{
					OFFSET 1.6217 23.2372 5.1134
					CHANNELS 3 Zrotation Xrotation Yrotation
					JOINT LeftArm
					{
						OFFSET 14.9198 0.0000 -5.5023
						CHANNELS 3 Zrotation Xrotation Yrotation
						JOINT LeftForeArm
						{
							OFFSET 28.7393 0.0000 -0.0026
							CHANNELS 3 Zrotation Xrotation Yrotation
							JOINT LeftHand
							{
								OFFSET 27.0940 -0.0000 0.0026
								CHANNELS 3 Zrotation Xrotation Yrotation
								JOINT LeftHandThumbEnd
								{
									OFFSET 12.2686 -3.2202 4.8331
									CHANNELS 3 Zrotation Xrotation Yrotation
									End Site
									{
										OFFSET 0.0 1.0 0.0
									}
								}
								JOINT LeftHandMiddleEnd
								{
									OFFSET 19.0120 -0.3129 -0.0340
									CHANNELS 3 Zrotation Xrotation Yrotation
									End Site
									{
										OFFSET 0.0 1.0 0.0
									}
								}
							}
						}
					}
				}
				JOINT RightShoulder
				{
					OFFSET -1.3801 23.1803 5.2142
					CHANNELS 3 Zrotation Xrotation Yrotation
					JOINT RightArm
					{
						OFFSET -15.0372 0.0000 -5.5456
						CHANNELS 3 Zrotation Xrotation Yrotation
						JOINT RightForeArm
						{
							OFFSET -28.7366 0.0000 -0.0026
							CHANNELS 3 Zrotation Xrotation Yrotation
							JOINT RightHand
							{
								OFFSET -27.1336 -0.0000 0.0026
								CHANNELS 3 Zrotation Xrotation Yrotation
								JOINT RightHandThumbEnd
								{
									OFFSET -12.2642 -3.2115 4.8040
									CHANNELS 3 Zrotation Xrotation Yrotation
									End Site
									{
										OFFSET 0.0 1.0 0.0
									}
								}
								JOINT RightHandMiddleEnd
								{
									OFFSET -19.0006 -0.3066 -0.0316
									CHANNELS 3 Zrotation Xrotation Yrotation
									End Site
									{
										OFFSET 0.0 1.0 0.0
									}
								}
							}
						}
					}
				}
			}
		}
	}
	JOINT LeftLeg
	{
		OFFSET 10.0432 -8.4345 2.5957
		CHANNELS 3 Zrotation Xrotation Yrotation
		JOINT LeftShin
		{
			OFFSET -0.0000 -43.2218 -0.8029
			CHANNELS 3 Zrotation Xrotation Yrotation
			JOINT LeftFoot
			{
				OFFSET 0.0000 -42.1551 -3.4815
				CHANNELS 3 Zrotation Xrotation Yrotation
				JOINT LeftToeBase
				{
					OFFSET 0.0000 -5.0595 13.2315
					CHANNELS 3 Zrotation Xrotation Yrotation
					End Site
					{
						OFFSET 0.0 1.0 0.0
					}
				}
			}
		}
	}
	JOINT RightLeg
	{
		OFFSET -10.0473 -8.2953 2.6203
		CHANNELS 3 Zrotation Xrotation Yrotation
		JOINT RightShin
		{
			OFFSET 0.0000 -43.3622 -0.8056
			CHANNELS 3 Zrotation Xrotation Yrotation
			JOINT RightFoot
			{
				OFFSET 0.0000 -42.1174 -3.4784
				CHANNELS 3 Zrotation Xrotation Yrotation
				JOINT RightToeBase
				{
					OFFSET -0.0000 -5.0796 13.2842
					CHANNELS 3 Zrotation Xrotation Yrotation
					End Site
					{
						OFFSET 0.0 1.0 0.0
					}
				}
			}
		}
	}
}
MOTION
Frames: 8
Frame Time: 0.033333
-52.8548 84.5791 54.9640 2.6370 -2.5440 -11.9218 1.2373 5.0662 -1.8477 0.0809 -3.1620 -3.6724 0.9163 11.6067 -7.2015 8.6455 6.8571 0.2514 -4.6153 -3.9627 -11.9526 -1.5733 -15.2478 -13.9311 0.0165 -0.0381 -0.0755 0.7340 -10.6194 -3.9421 -0.6883 -10.6389 3.7310 1.9659 8.9443 -17.8773 -31.7899 -28.3791 -47.6235 1.5303 2.2882 -91.0765 -9.4106 21.0677 6.1748 -16.1055 10.8476 15.5209 -60.1738 1.5126 1.9721 10.9182 6.3177 16.1219 12.3085 -37.0320 14.8995 0.8643 -0.5331 65.7621 -24.2961 1.8896 11.9809 15.2808 7.0381 -16.4568 49.5921 -3.5158 -5.4619 24.1554 -6.2943 24.0298 -0.6252 42.2160 -1.3905 -28.7104 -23.0479 14.8569 1.6573 -0.6588 -2.1563 -9.3431 -50.2499 -34.1534 0.7515 63.5722 0.7467 3.6006 -11.1759 13.6331 -1.4124 0.8925 0.6617
-52.3312 84.7164 54.3052 2.9567 -2.8144 -9.9420 1.3917 5.0122 -1.6374 0.1115 -3.1550 -3.1724 0.9756 11.6640 -6.5271 8.7675 7.1986 0.1595 -4.8669 -4.0013 -12.5819 -0.9996 -15.4386 -15.1595 0.0136 -0.0331 -0.0583 0.7244 -10.6167 -3.9243 -0.6853 -10.6348 3.7497 0.6554 9.3570 -16.2233 -35.1275 -25.3468 -42.7944 1.4257 1.9717 -92.6004 -7.0846 19.5766 6.0668 -16.0318 10.8435 15.7262 -60.2308 1.5760 1.9603 10.8771 6.6864 16.2297 16.7010 -38.6560 11.7184 0.6909 -0.7177 65.2201 -24.8121 -2.7564 13.9534 15.3874 7.1377 -16.5044 49.6874 -3.4674 -5.4092 23.7384 -7.8575 23.6134 -0.6746 43.4210 -1.4233 -28.3662 -23.2417 13.5050 1.6498 -0.6587 -2.1472 -10.2791 -50.3947 -34.9706 0.6631 62.8266 0.6403 4.1734 -10.4252 12.6933 -1.4104 0.7762 0.6638
-51.8852 84.8379 53.6767 3.2133 -2.9827 -8.2213 1.4802 5.0084 -1.4392 0.1126 -3.1177 -2.7302 0.9335 11.7182 -5.9229 9.0181 7.4319 -0.0487 -4.9897 -4.0592 -13.1355 -0.3551 -15.6924 -16.1890 0.0085 -0.0298 -0.0527 0.7133 -10.6302 -3.9203 -0.6853 -10.6452 3.7609 -0.6882 9.8746 -14.8366 -38.2966 -22.3575 -37.6046 1.4782 1.7388 -92.8066 -4.5136 18.5149 6.1385 -16.0277 10.8429 15.9477 -60.5496 1.6711 2.0323 10.9629 7.0705 16.0872 21.0730 -39.4511 8.6153 0.4577 -0.7433 65.1997 -24.9644 -6.6084 15.4458 15.5201 7.2459 -16.5199 49.7370 -3.4263 -5.3309 23.3217 -9.3705 23.2893 -0.7125 44.5189 -1.4373 -27.8505 -23.3385 12.1892 1.6419 -0.6432 -2.1290 -10.9466 -50.5787 -35.7129 0.6062 62.0969 0.5770 4.5576 -9.7631 11.7419 -1.4091 0.5770 0.6756
-51.4907 84.9454 53.0001 3.3999 -3.0599 -6.7528 1.5235 5.0876 -1.2630 0.1024 -3.0406 -2.3363 0.7791 11.7461 -5.4136 9.3832 7.5066 -0.3007 -5.0178 -4.1495 -13.6924 0.3172 -15.9717 -17.0154 0.0021 -0.0400 -0.0592 0.7021 -10.6508 -3.9256 -0.6879 -10.6649 3.7570 -2.0217 10.4252 -13.7373 -41.2159 -20.2028 -32.2719 1.4362 1.6837 -91.2924 -1.4291 18.2843 6.5716 -16.0673 10.7914 16.0335 -60.8068 1.7208 2.1285 11.1397 7.4170 15.8027 25.3807 -39.5972 5.5768 0.2560 -0.6115 65.4575 -25.0466 -9.8649 16.5914 15.5654 7.3121 -16.5159 49.6822 -3.4317 -5.2843 22.9604 -10.8422 23.0649 -0.7441 45.5136 -1.4545 -27.1848 -23.3838 10.8766 1.6380 -0.6355 -2.1206 -11.3400 -50.7914 -36.4433 0.5958 61.4176 0.5764 4.7073 -9.1973 10.8062 -1.4066 0.3652 0.6956
-51.1522 85.0109 52.2890 3.5035 -3.0507 -5.4729 1.5345 5.2296 -1.0857 0.0691 -2.9610 -2.0415 0.5676 11.8184 -4.9579 9.8302 7.4024 -0.5709 -5.0084 -4.2362 -14.1512 1.0106 -16.2783 -17.7311 -0.0043 -0.0519 -0.0567 0.6902 -10.6732 -3.9233 -0.6903 -10.6883 3.7637 -3.3937 10.9256 -12.8890 -43.8169 -19.2641 -27.0505 1.1465 1.4191 -88.4589 2.3911 19.0400 7.5949 -16.0302 10.7543 15.9608 -60.9135 1.6947 2.1122 11.3635 7.7551 15.4470 29.4228 -39.2475 2.7367 0.0694 -0.4712 65.8179 -25.2097 -12.5589 17.6492 15.5451 7.3748 -16.4793 49.6087 -3.4405 -5.2348 22.6392 -12.3208 22.8445 -0.7598 46.4993 -1.4431 -26.4223 -23.4087 9.5844 1.6345 -0.6200 -2.1122 -11.4377 -51.0613 -37.2060 0.6107 60.8792 0.6025 4.6108 -8.7704 9.8713 -1.4035 0.2338 0.7147
-50.8914 85.0583 51.5841 3.5352 -2.9235 -4.2530 1.5106 5.3477 -0.9685 0.0154 -2.8591 -1.7925 0.3387 11.9041 -4.6235 10.2984 7.0942 -0.7123 -5.0138 -4.2977 -14.5292 1.7024 -16.5953 -18.4771 -0.0111 -0.0609 -0.0238 0.6762 -10.6583 -3.8886 -0.6909 -10.6763 3.7970 -4.7799 11.2442 -12.2780 -46.0618 -19.1473 -22.4231 0.7900 1.1203 -85.3309 6.3774 19.6804 8.5742 -15.9181 10.9050 15.9593 -60.9347 1.7498 2.0193 11.6315 8.0569 15.0545 33.0620 -38.5748 0.1257 -0.0094 -0.2928 66.2818 -25.3161 -14.5865 18.5734 15.4946 7.4342 -16.4578 49.5426 -3.4905 -5.2160 22.3530 -13.7960 22.5034 -0.7422 47.3762 -1.3931 -25.6004 -23.3710 8.3655 1.6334 -0.5739 -2.1125 -11.2700 -51.3189 -38.0932 0.6797 60.3567 0.6759 4.4004 -8.3835 8.9539 -1.4020 0.1878 0.7229
-50.6965 85.0889 50.8778 3.5184 -2.7104 -3.0922 1.4665 5.4611 -0.8718 -0.0437 -2.7880 -1.5878 0.0970 12.0459 -4.4128 10.6651 6.6593 -0.7877 -5.0389 -4.2936 -14.7509 2.3660 -16.9511 -19.2660 -0.0158 -0.0632 0.0302 0.6584 -10.6462 -3.8336 -0.6835 -10.6728 3.8524 -5.9743 11.4498 -11.9023 -47.9547 -19.3043 -18.6767 0.6318 0.8621 -83.3038 9.2671 18.9429 8.4578 -15.6602 11.1799 16.0732 -60.8649 1.8808 1.9477 11.8811 8.3329 14.6605 36.1221 -37.8139 -2.1532 0.0869 -0.2638 66.8499 -25.2941 -16.0964 19.4755 15.4443 7.4928 -16.4445 49.5317 -3.5389 -5.1971 22.0933 -15.3136 22.1342 -0.7307 48.2076 -1.3630 -24.7851 -23.3617 7.3118 1.6319 -0.4938 -2.0951 -10.8773 -51.6094 -39.1102 0.7296 59.9279 0.7275 4.1945 -7.9825 8.1062 -1.4008 0.1356 0.7297
-50.6099 85.0917 50.2481 3.4781 -2.4641 -1.9670 1.4206 5.6085 -0.7893 -0.0787 -2.7298 -1.4006 -0.1454 12.1665 -4.3230 10.9222 6.1573 -0.7679 -5.1282 -4.2741 -14.9607 2.9692 -17.2454 -20.0056 -0.0191 -0.0633 0.0597 0.6462 -10.6298 -3.8041 -0.6785 -10.6667 3.8844 -6.7119 11.5080 -11.6662 -49.6046 -19.3274 -15.9256 0.4583 0.6733 -83.2160 10.4528 16.7835 7.1282 -15.3281 11.3013 16.1348 -60.6513 1.9683 1.9718 12.0441 8.5556 14.3413 38.6256 -37.2283 -4.1658 0.2232 -0.1795 67.4848 -25.2407 -17.4918 20.5064 15.4089 7.5586 -16.4787 49.5576 -3.5359 -5.1896 21.8884 -16.7804 21.7884 -0.7503 48.9170 -1.3866 -24.1746 -23.3454 6.4038 1.6331 -0.4022 -2.0698 -10.4123 -51.8787 -40.1574 0.7216 59.5733 0.7236 4.0357 -7.6867 7.3579 -1.4009 0.1500 0.7517
